<svg width="25" height="24" viewBox="0 0 25 24" fill="none" xmlns="http://www.w3.org/2000/svg">
<path d="M12.7129 24C19.4927 24 24.9888 18.6274 24.9888 12C24.9888 5.37259 19.4927 0 12.7129 0C5.93311 0 0.437012 5.37259 0.437012 12C0.437012 18.6274 5.93311 24 12.7129 24Z" fill="#82001A"/>
<path d="M15.2454 5.87793H10.1827C8.12538 5.87793 6.44995 7.51349 6.44995 9.52682V14.4757C6.44995 16.4868 8.12311 18.1246 10.1827 18.1246H15.2454C17.3027 18.1246 18.9782 16.4891 18.9782 14.4757V9.5246C18.9759 7.51349 17.3027 5.87793 15.2454 5.87793ZM17.7165 14.4757C17.7165 15.8091 16.6094 16.8913 15.2454 16.8913H10.1827C8.81874 16.8913 7.71164 15.8091 7.71164 14.4757V9.5246C7.71164 8.19127 8.81874 7.10904 10.1827 7.10904H15.2454C16.6094 7.10904 17.7165 8.19127 17.7165 9.5246V14.4757Z" fill="white"/>
<path d="M12.7129 8.83325C10.926 8.83325 9.47339 10.2533 9.47339 11.9999C9.47339 13.7466 10.926 15.1666 12.7129 15.1666C14.4997 15.1666 15.9523 13.7466 15.9523 11.9999C15.9523 10.2533 14.4997 8.83325 12.7129 8.83325ZM12.7129 13.9355C11.6194 13.9355 10.7328 13.0688 10.7328 11.9999C10.7328 10.931 11.6194 10.0644 12.7129 10.0644C13.8063 10.0644 14.6929 10.931 14.6929 11.9999C14.6929 13.0688 13.8063 13.9355 12.7129 13.9355Z" fill="white"/>
<path d="M15.9593 9.61566C16.3874 9.61566 16.7345 9.27639 16.7345 8.85788C16.7345 8.43937 16.3874 8.1001 15.9593 8.1001C15.5312 8.1001 15.1841 8.43937 15.1841 8.85788C15.1841 9.27639 15.5312 9.61566 15.9593 9.61566Z" fill="white"/>
</svg>
