<svg width="26" height="24" viewBox="0 0 26 24" fill="none" xmlns="http://www.w3.org/2000/svg">
<path d="M13.1499 24C19.9297 24 25.4258 18.6274 25.4258 12C25.4258 5.37259 19.9297 0 13.1499 0C6.37012 0 0.874023 5.37259 0.874023 12C0.874023 18.6274 6.37012 24 13.1499 24Z" fill="#82001A"/>
<path d="M20.3516 7.99324C19.8379 8.21546 19.2877 8.36657 18.708 8.43324C19.2991 8.08657 19.7515 7.53991 19.9674 6.88657C19.415 7.20657 18.8012 7.43991 18.1511 7.56435C17.6282 7.01991 16.8848 6.68213 16.0619 6.68213C14.4819 6.68213 13.1998 7.93546 13.1998 9.47991C13.1998 9.69991 13.2248 9.91324 13.2748 10.1177C10.8947 9.99991 8.78503 8.88658 7.37558 7.19324C7.12779 7.60657 6.98912 8.08657 6.98912 8.59991C6.98912 9.57102 7.49379 10.4266 8.26217 10.9288C7.79387 10.9155 7.35285 10.7888 6.96638 10.5777C6.96638 10.591 6.96638 10.6021 6.96638 10.6132C6.96638 11.9688 7.953 13.0977 9.26243 13.3555C9.02373 13.4199 8.76912 13.4532 8.50996 13.4532C8.32582 13.4532 8.14623 13.4355 7.97119 13.4021C8.33719 14.5132 9.39201 15.3221 10.6446 15.3444C9.6648 16.0955 8.4304 16.5421 7.09142 16.5421C6.85954 16.5421 6.63221 16.5288 6.40942 16.5044C7.67566 17.2977 9.17831 17.7621 10.7946 17.7621C16.0573 17.7621 18.9376 13.4999 18.9376 9.80213C18.9376 9.67991 18.9354 9.55991 18.9285 9.43991C19.4832 9.04658 19.9674 8.55546 20.3516 7.99324Z" fill="white"/>
</svg>
